{
  "source": "C:\\Users\\Peter\\Desktop\\stuff\\MIUN\\quantitative_research\\video_compression\\videos\\BVI-HD\\Grass_1920x1080_60fps.mp4",
  "output": "C:\\Users\\Peter\\Desktop\\stuff\\MIUN\\quantitative_research\\video_compression\\compressed_videos\\BVI-HD\\h264\\12\\Grass_1920x1080_60fps_h264.mp4",
  "codec": "h264",
  "ok": "Input #0, mov,mp4,m4a,3gp,3g2,mj2, from 'C:\\Users\\Peter\\Desktop\\stuff\\MIUN\\quantitative_research\\video_compression\\videos\\BVI-HD\\Grass_1920x1080_60fps.mp4':\n  Metadata:\n    major_brand     : isom\n    minor_version   : 512\n    compatible_brands: isomiso2avc1mp41\n    encoder         : Lavf54.28.101\n  Duration: 00:00:05.00, start: 0.000000, bitrate: 655968 kb/s\n  Stream #0:0[0x1](und): Video: h264 (High 4:4:4 Predictive) (avc1 / 0x31637661), yuv420p(progressive), 1920x1080, 655963 kb/s, 60 fps, 60 tbr, 60 tbn (default)\n    Metadata:\n      handler_name    : VideoHandler\n      vendor_id       : [0][0][0][0]\n[out#0/mp4 @ 000001a293fd9a80] Codec AVOption b:a (set bitrate (in bits/s)) has not been used for any stream. The most likely reason is either wrong type (e.g. a video option with no video streams) or that it is a private option of some decoder which was not actually used for any stream.\nStream mapping:\n  Stream #0:0 -> #0:0 (h264 (native) -> h264 (libx264))\nPress [q] to stop, [?] for help\n[libx264 @ 000001a294be0400] using cpu capabilities: MMX2 SSE2Fast SSSE3 SSE4.2 AVX FMA3 BMI2 AVX2\n[libx264 @ 000001a294be0400] profile High, level 5.0, 4:2:0, 8-bit\n[libx264 @ 000001a294be0400] 264 - core 165 r3222 b35605a - H.264/MPEG-4 AVC codec - Copyleft 2003-2025 - http://www.videolan.org/x264.html - options: cabac=1 ref=5 deblock=1:0:0 analyse=0x3:0x113 me=hex subme=8 psy=1 psy_rd=1.00:0.00 mixed_ref=1 me_range=16 chroma_me=1 trellis=2 8x8dct=1 cqm=0 deadzone=21,11 fast_pskip=1 chroma_qp_offset=-2 threads=18 lookahead_threads=3 sliced_threads=0 nr=0 decimate=1 interlaced=0 bluray_compat=0 constrained_intra=0 bframes=3 b_pyramid=2 b_adapt=1 b_bias=0 direct=3 weightb=1 open_gop=0 weightp=2 keyint=250 keyint_min=25 scenecut=40 intra_refresh=0 rc_lookahead=50 rc=cbr mbtree=1 bitrate=12000 ratetol=1.0 qcomp=0.60 qpmin=0 qpmax=69 qpstep=4 vbv_maxrate=12000 vbv_bufsize=12000 nal_hrd=none filler=0 ip_ratio=1.40 aq=1:1.00\nOutput #0, mp4, to 'C:\\Users\\Peter\\Desktop\\stuff\\MIUN\\quantitative_research\\video_compression\\compressed_videos\\BVI-HD\\h264\\12\\Grass_1920x1080_60fps_h264.mp4':\n  Metadata:\n    major_brand     : isom\n    minor_version   : 512\n    compatible_brands: isomiso2avc1mp41\n    encoder         : Lavf62.3.100\n  Stream #0:0(und): Video: h264 (avc1 / 0x31637661), yuv420p(tv, progressive), 1920x1080, q=2-31, 12000 kb/s, 60 fps, 15360 tbn (default)\n    Metadata:\n      encoder         : Lavc62.11.100 libx264\n      handler_name    : VideoHandler\n      vendor_id       : [0][0][0][0]\n    Side data:\n      cpb: bitrate max/min/avg: 12000000/0/12000000 buffer size: 12000000 vbv_delay: N/A\nframe=    0 fps=0.0 q=0.0 size=       0KiB time=N/A bitrate=N/A speed=N/A elapsed=0:00:01.16    \nframe=    0 fps=0.0 q=0.0 size=       0KiB time=N/A bitrate=N/A speed=N/A elapsed=0:00:01.80    \nframe=    0 fps=0.0 q=0.0 size=       0KiB time=N/A bitrate=N/A speed=N/A elapsed=0:00:02.35    \nframe=    0 fps=0.0 q=0.0 size=       0KiB time=N/A bitrate=N/A speed=N/A elapsed=0:00:03.01    \nframe=    0 fps=0.0 q=0.0 size=       0KiB time=N/A bitrate=N/A speed=N/A elapsed=0:00:03.70    \nframe=    0 fps=0.0 q=0.0 size=       0KiB time=N/A bitrate=N/A speed=N/A elapsed=0:00:04.24    \nframe=   21 fps=4.4 q=33.0 size=     512KiB time=00:00:00.31 bitrate=13246.4kbits/s speed=0.0658x elapsed=0:00:04.81    \nframe=   41 fps=7.3 q=32.0 size=     768KiB time=00:00:00.58 bitrate=10786.0kbits/s speed=0.104x elapsed=0:00:05.59    \nframe=   53 fps=8.5 q=32.0 size=    1024KiB time=00:00:00.85 bitrate=9869.4kbits/s speed=0.137x elapsed=0:00:06.20    \nframe=   65 fps=9.6 q=32.0 size=    1280KiB time=00:00:01.05 bitrate=9986.8kbits/s speed=0.155x elapsed=0:00:06.76    \nframe=   81 fps= 11 q=33.0 size=    1536KiB time=00:00:01.31 bitrate=9556.9kbits/s speed=0.177x elapsed=0:00:07.42    \nframe=   93 fps= 12 q=32.0 size=    1792KiB time=00:00:01.51 bitrate=9679.4kbits/s speed=0.188x elapsed=0:00:08.05    \nframe=  109 fps= 12 q=32.0 size=    2048KiB time=00:00:01.78 bitrate=9408.0kbits/s speed=0.204x elapsed=0:00:08.73    \nframe=  121 fps= 13 q=33.0 size=    2304KiB time=00:00:01.98 bitrate=9516.7kbits/s speed=0.212x elapsed=0:00:09.37    \nframe=  137 fps= 14 q=32.0 size=    2816KiB time=00:00:02.23 bitrate=10329.4kbits/s speed=0.226x elapsed=0:00:09.89    \nframe=  153 fps= 14 q=32.0 size=    3072KiB time=00:00:02.51 bitrate=9999.8kbits/s speed=0.236x elapsed=0:00:10.66    \nframe=  165 fps= 15 q=32.0 size=    3328KiB time=00:00:02.65 bitrate=10288.1kbits/s speed=0.234x elapsed=0:00:11.34    \nframe=  177 fps= 15 q=33.0 size=    3584KiB time=00:00:02.91 bitrate=10066.5kbits/s speed=0.244x elapsed=0:00:11.97    \nframe=  181 fps= 14 q=32.0 size=    3584KiB time=00:00:02.98 bitrate=9841.5kbits/s speed=0.238x elapsed=0:00:12.53    \nframe=  197 fps= 15 q=33.0 size=    3840KiB time=00:00:03.25 bitrate=9679.3kbits/s speed=0.248x elapsed=0:00:13.11    \nframe=  213 fps= 16 q=33.0 size=    4352KiB time=00:00:03.50 bitrate=10186.3kbits/s speed=0.255x elapsed=0:00:13.73    \nframe=  225 fps= 16 q=32.0 size=    4608KiB time=00:00:03.71 bitrate=10156.7kbits/s speed=0.261x elapsed=0:00:14.25    \nframe=  237 fps= 16 q=32.0 size=    4864KiB time=00:00:03.91 bitrate=10173.5kbits/s speed=0.265x elapsed=0:00:14.77    \nframe=  250 fps= 16 q=32.0 size=    4864KiB time=00:00:04.13 bitrate=9640.2kbits/s speed=0.27x elapsed=0:00:15.29    \nframe=  259 fps= 16 q=33.0 size=    5632KiB time=00:00:04.16 bitrate=11073.1kbits/s speed=0.263x elapsed=0:00:15.81    \nframe=  275 fps= 17 q=31.0 size=    5888KiB time=00:00:04.55 bitrate=10601.1kbits/s speed=0.277x elapsed=0:00:16.40    \nframe=  295 fps= 17 q=-1.0 size=    6144KiB time=00:00:04.85 bitrate=10377.7kbits/s speed=0.286x elapsed=0:00:16.93    \n[mp4 @ 000001a294067c00] Starting second pass: moving the moov atom to the beginning of the file\n[out#0/mp4 @ 000001a293fd9a80] video:6297KiB audio:0KiB subtitle:0KiB other streams:0KiB global headers:0KiB muxing overhead: 0.070389%\nframe=  300 fps= 18 q=-1.0 Lsize=    6302KiB time=00:00:04.96 bitrate=10394.1kbits/s speed=0.29x elapsed=0:00:17.13    \n[libx264 @ 000001a294be0400] frame I:2     Avg QP:26.34  size:421450\n[libx264 @ 000001a294be0400] frame P:76    Avg QP:29.87  size: 64934\n[libx264 @ 000001a294be0400] frame B:222   Avg QP:36.33  size:  3017\n[libx264 @ 000001a294be0400] consecutive B-frames:  1.3%  0.0%  0.0% 98.7%\n[libx264 @ 000001a294be0400] mb I  I16..4:  0.0% 99.5%  0.5%\n[libx264 @ 000001a294be0400] mb P  I16..4:  0.0%  0.5%  0.0%  P16..4: 44.0% 25.3% 16.4%  0.0%  0.0%    skip:13.8%\n[libx264 @ 000001a294be0400] mb B  I16..4:  0.0%  0.0%  0.0%  B16..8: 24.1%  0.9%  0.3%  direct: 0.7%  skip:73.9%  L0:22.7% L1:72.6% BI: 4.8%\n[libx264 @ 000001a294be0400] 8x8 transform intra:98.8% inter:59.6%\n[libx264 @ 000001a294be0400] direct mvs  spatial:95.5% temporal:4.5%\n[libx264 @ 000001a294be0400] coded y,uvDC,uvAC intra: 99.8% 100.0% 99.2% inter: 10.7% 16.5% 6.6%\n[libx264 @ 000001a294be0400] i8 v,h,dc,ddl,ddr,vr,hd,vl,hu: 15% 10% 13%  7% 11% 10%  8% 12% 13%\n[libx264 @ 000001a294be0400] i4 v,h,dc,ddl,ddr,vr,hd,vl,hu: 12%  4%  2%  7% 18% 19% 13% 14% 10%\n[libx264 @ 000001a294be0400] i8c dc,h,v,p: 67%  8% 12% 13%\n[libx264 @ 000001a294be0400] Weighted P-Frames: Y:0.0% UV:0.0%\n[libx264 @ 000001a294be0400] ref P L0: 54.7% 14.7% 17.2%  4.9%  8.6%\n[libx264 @ 000001a294be0400] ref B L0: 86.1%  7.4%  4.3%  2.2%\n[libx264 @ 000001a294be0400] ref B L1: 95.8%  4.2%\n[libx264 @ 000001a294be0400] kb/s:10316.35\n",
  "seconds": 17.68011999130249,
  "probe_out": {}
}